<?xml version="1.0" encoding="utf-8"?>
<svg xmlns="http://www.w3.org/2000/svg" xmlns:xlink="http://www.w3.org/1999/xlink" id="getwell-logo" x="0px" y="0px" viewBox="0 0 2072 428" style="enable-background:new 0 0 2072 428;" xml:space="preserve" fill="#291758" width="2072" height="428">
    <g>
        <path d="M896,328.9c-4-1.8-9.5-1.4-12.9,3.6c-15.5,22.6-34.9,33.8-59.1,33.8c-31.2,0-38.6-24.6-38.6-46.1V145.9h94.4 c7.5,0,13.7-6.1,13.7-13.7v-9.3c0-7.5-6.1-13.7-13.7-13.7h-94.4V82c0-4.6-2.6-8.6-6.7-10.5c-4.2-2-8.9-1.3-12.4,1.8l-61,52.2 c-3.7,3.2-5.1,8.2-3.3,12.8c1.7,4.6,6,7.6,10.8,7.6h17.8v184.6c0,52.6,31.6,84.8,79.8,84.8c32.9,0,76.2-20,91.4-74.3 C903.4,335.1,899.9,330.7,896,328.9z"></path>
        <path d="M1901.7,384.4L1901.7,384.4c-14-4-17.7-5.1-17.7-24.4V18.8c0-3.3-0.9-6.2-2.7-8.6c-3.6-4.8-10-6.6-15.5-4.6 L1808.7,27c-5,1.9-8.2,6.2-8.7,11.3c-0.5,4.9,1.9,9.7,6.2,12.7l14.8,10.4c5.2,3.6,8.3,9.6,8.3,15.8v282.7 c0,19.3-3.7,20.4-17.7,24.4c-5.9,1.7-9.9,7-9.9,13.1v1.1c0,3.6,1.4,7,4,9.7c2.5,2.5,6,4,9.7,4h82.7c7.5,0,13.6-6.1,13.6-13.7v-1.1 C1911.6,391.5,1907.5,386.1,1901.7,384.4z"></path>
        <path d="M2037.8,384.4l-0.4,1.5L2037.8,384.4c-14-4-17.7-5.1-17.7-24.4V18.8c0-3.2-1-6.2-2.7-8.6 c-3.6-4.8-9.9-6.6-15.5-4.6L1944.7,27c-5,1.9-8.2,6.2-8.7,11.3c-0.5,4.9,1.9,9.7,6.2,12.7l14.8,10.4c5.2,3.6,8.3,9.6,8.3,15.8 v282.7c0,19.3-3.7,20.4-17.7,24.4c-5.9,1.7-9.9,7-9.9,13.1v1.1c0,3.6,1.4,7,4,9.7c2.5,2.5,6,4,9.7,4h82.7 c7.5,0,13.6-6.1,13.6-13.7v-1.1C2047.6,391.5,2043.5,386.1,2037.8,384.4z"></path>
        <path d="M678.9,305.3c-4.2-1.8-10.2-1.1-13.5,4.4c-23.1,38.6-50.4,54.3-94.1,54.3c-47,0-94.4-36.7-94.4-118.6 c0-3.5,0.1-7.2,0.4-11h175.8c15.1,0,21.3-10.8,21.3-25.8c0-65.7-41.3-104.7-109.4-104.7c-87.4,0-142.9,77.6-142.9,162.5 c0,91.2,59.9,151.5,139.3,151.5c64.4,0,105.9-32.6,123.6-99.7C686.7,311.8,683.2,307.1,678.9,305.3z M483.6,201.7 c15.5-42.7,38.9-63.5,71.3-63.5c41.9,0,61.6,31.6,62.7,63.5H483.6z"></path>
        <path d="M1559,40.1c-0.5-7.4-6.8-13.5-14.3-13.5h-97.5c-3.7,0-7,1.5-9.5,4c-2.4,2.6-3.7,6.1-3.5,9.8l0.1,1.1 c0.4,6.2,4.9,11.6,10.9,13.1c12.9,3.1,20.4,7.1,23.5,12.5c3.6,6.2,3.2,16.5-1,30.6l-70.4,216.2l-75.3-231.5 c-2.5-7.9-2.7-13.8-0.6-17.6c3-5.4,11.7-8.3,18.9-10.4c5.9-1.6,10.3-6.9,10.6-12.9l0.1-1.1c0.2-3.7-1-7.1-3.4-9.8 s-5.9-4.1-9.5-4.1h-112c-7.4,0-13.9,6.1-14.4,13.4l-0.1,1.1c-0.4,6.2,3.5,11.8,9.5,13.4c17.3,4.6,30.5,12.1,38.7,33.8l1.8,5.2 L1190,313.7l-75.3-231.5c-2.5-7.9-2.7-13.8-0.6-17.6c3-5.4,11.7-8.3,18.9-10.4c5.9-1.6,10.3-6.9,10.6-12.9l0.1-1.1 c0.2-3.7-1-7.1-3.4-9.8s-5.8-4.1-9.5-4.1h-112.2c-7.4,0-13.9,6.1-14.4,13.4l-0.1,1.1c-0.4,6.2,3.4,11.8,9.5,13.4 c17.3,4.6,30.4,12.1,38.7,33.8l108.4,323.5c2.1,6.5,8,10.7,14.9,10.7c6.9,0,12.8-4.2,14.9-10.7l88.8-265.2l88.9,265.4 c2.1,6.5,8,10.7,14.9,10.7c6.9,0,12.8-4.2,14.9-10.7l102.5-306.4c13-35.3,27.5-42.6,50.1-51.6c5.2-2.1,8.4-7.2,8.1-12.9L1559,40.1 z"></path>
        <path d="M398.8,210.3c-1.7-5.6-6.5-9.2-12.4-9.2H214.8c-7.6,0-13.9,6.2-13.9,13.9v6.7c0,7.6,6.2,13.9,13.9,13.9h80.3 c4.9,0,8.9,4,8.9,8.9V344c0,7.9-5,15.1-12.5,17.9c-17,6.2-34.1,8.8-59.2,8.8c-82.6,0-139.1-64.8-139.1-168.4 c0-98.8,63-153.6,129.2-153.6c43.6,0,89.9,10.9,124.4,82.5c2.8,5.8,8.6,7.3,13.1,6.2c4.6-1.1,9.2-5,9.2-11.4v-75 c0-5-2.7-9.7-7-12.1C318.7,14.6,281.9,5.2,230.8,5.2c-117.9,0-206.5,96.7-206.5,214.5c0,122.3,86,199.9,192.5,199.9 c83.5,0,129.6-32.9,145.5-47.1c4.3-3.8,6.7-9.2,6.7-14.9v-95.7c0-13,6.4-25.1,17.3-32.3l7.1-4.8 C398.4,221.7,400.4,216,398.8,210.3z"></path>
        <path d="M1770.2,305.3c-4.2-1.8-10.2-1.1-13.5,4.4c-23.1,38.6-50.4,54.3-94.1,54.3c-47,0-94.4-36.7-94.4-118.6 c0-3.5,0.1-7.2,0.4-11h175.8c15,0,21.3-10.8,21.3-25.8c0-65.7-41.3-104.7-109.4-104.7c-87.4,0-142.9,77.6-142.9,162.5 c0,91.2,59.9,151.5,139.3,151.5c64.4,0,105.9-32.6,123.6-99.7C1778,311.8,1774.5,307.1,1770.2,305.3z M1574.9,201.7 c15.5-42.7,38.9-63.5,71.3-63.5c41.9,0,61.6,31.6,62.7,63.5H1574.9z"></path>
    </g>
</svg>
